{
  "accessors": [
    {
      "bufferView": 2,
      "componentType": 5126,
      "count": 27821,
      "max": [
        0.23014527559280396,
        0.2840930223464966,
        0.09492360055446625
      ],
      "min": [
        -0.23062042891979218,
        -2.7755575615628914e-17,
        -0.09481837600469589
      ],
      "type": "VEC3"
    },
    {
      "bufferView": 2,
      "byteOffset": 333852,
      "componentType": 5126,
      "count": 27821,
      "max": [
        0.99994957447052,
        0.9999455213546753,
        0.9999867677688599
      ],
      "min": [
        -0.9999984502792358,
        -0.9999063611030579,
        -0.9999982118606567
      ],
      "type": "VEC3"
    },
    {
      "bufferView": 3,
      "componentType": 5126,
      "count": 27821,
      "max": [
        0.9998217225074768,
        0.9999170899391174,
        0.9999174475669861,
        -1
      ],
      "min": [
        -0.9999032020568848,
        -0.9999556541442871,
        -0.9999555945396423,
        -1
      ],
      "type": "VEC4"
    },
    {
      "bufferView": 1,
      "componentType": 5126,
      "count": 27821,
      "max": [
        0.999963641166687,
        0.9999624490737915
      ],
      "min": [
        0.0000031281813335226616,
        0.005156338214874268
      ],
      "type": "VEC2"
    },
    {
      "bufferView": 1,
      "byteOffset": 222568,
      "componentType": 5126,
      "count": 27821,
      "max": [
        0.999963641166687,
        0.9999624490737915
      ],
      "min": [
        0.0000031281813335226616,
        0.005156338214874268
      ],
      "type": "VEC2"
    },
    {
      "bufferView": 1,
      "byteOffset": 445136,
      "componentType": 5126,
      "count": 27821,
      "max": [
        0.999963641166687,
        0.9999624490737915
      ],
      "min": [
        0.0000031281813335226616,
        0.005156338214874268
      ],
      "type": "VEC2"
    },
    {
      "bufferView": 1,
      "byteOffset": 667704,
      "componentType": 5126,
      "count": 27821,
      "max": [
        0.999963641166687,
        0.9999624490737915
      ],
      "min": [
        0.0000031281813335226616,
        0.005156338214874268
      ],
      "type": "VEC2"
    },
    {
      "bufferView": 1,
      "byteOffset": 890272,
      "componentType": 5126,
      "count": 27821,
      "max": [
        0.999963641166687,
        0.9999624490737915
      ],
      "min": [
        0.0000031281813335226616,
        0.005156338214874268
      ],
      "type": "VEC2"
    },
    {
      "bufferView": 0,
      "componentType": 5125,
      "count": 141312,
      "type": "SCALAR"
    }
  ],
  "asset": {
    "extras": {
      "author": "ShoesPlug (https://sketchfab.com/ShoesPlug)",
      "license": "CC-BY-4.0 (http://creativecommons.org/licenses/by/4.0/)",
      "source": "https://sketchfab.com/3d-models/jordan-12-retro-cherry-174ed61d8cd04c9596f2654f79c0acd7",
      "title": "Jordan 12 Retro Cherry"
    },
    "generator": "Sketchfab-16.16.0",
    "version": "2.0"
  },
  "bufferViews": [
    {
      "buffer": 0,
      "byteLength": 565248,
      "name": "floatBufferViews",
      "target": 34963
    },
    {
      "buffer": 0,
      "byteLength": 1112840,
      "byteOffset": 565248,
      "byteStride": 8,
      "name": "floatBufferViews",
      "target": 34962
    },
    {
      "buffer": 0,
      "byteLength": 667704,
      "byteOffset": 1678088,
      "byteStride": 12,
      "name": "floatBufferViews",
      "target": 34962
    },
    {
      "buffer": 0,
      "byteLength": 445136,
      "byteOffset": 2345792,
      "byteStride": 16,
      "name": "floatBufferViews",
      "target": 34962
    }
  ],
  "buffers": [
    {
      "byteLength": 2790928,
      "uri": "scene.bin"
    }
  ],
  "images": [
    {
      "uri": "textures/material_0_diffuse.jpeg"
    },
    {
      "uri": "textures/material_0_specularGlossiness.png"
    },
    {
      "uri": "textures/material_0_normal.jpeg"
    },
    {
      "uri": "textures/material_0_occlusion.png"
    }
  ],
  "materials": [
    {
      "name": "material_0",
      "pbrMetallicRoughness": {
        "baseColorFactor": [
          1,
          1,
          1,
          1
        ],
        "metallicFactor": 0,
        "roughnessFactor": 0.7,
        "baseColorTexture": {
          "index": 0
        }
      },
      "normalTexture": {
        "index": 2
      },
      "occlusionTexture": {
        "index": 3
      }
    }
  ],
  "meshes": [
    {
      "name": "Object_0",
      "primitives": [
        {
          "attributes": {
            "NORMAL": 1,
            "POSITION": 0,
            "TANGENT": 2,
            "TEXCOORD_0": 3,
            "TEXCOORD_1": 4,
            "TEXCOORD_2": 5,
            "TEXCOORD_3": 6,
            "TEXCOORD_4": 7
          },
          "indices": 8,
          "material": 0,
          "mode": 4
        }
      ]
    }
  ],
  "nodes": [
    {
      "children": [
        1
      ],
      "matrix": [
        1,
        0,
        0,
        0,
        0,
        2.220446049250313e-16,
        -1,
        0,
        0,
        1,
        2.220446049250313e-16,
        0,
        0,
        0,
        0,
        1
      ],
      "name": "Sketchfab_model"
    },
    {
      "children": [
        2
      ],
      "name": "root"
    },
    {
      "children": [
        3
      ],
      "matrix": [
        1,
        0,
        0,
        0,
        0,
        2.220446049250313e-16,
        1,
        0,
        0,
        -1,
        2.220446049250313e-16,
        0,
        0,
        0,
        0,
        1
      ],
      "name": "GLTF_SceneRootNode"
    },
    {
      "children": [
        4
      ],
      "name": "_0"
    },
    {
      "mesh": 0,
      "name": "Object_4"
    }
  ],
  "samplers": [
    {
      "magFilter": 9729,
      "minFilter": 9987,
      "wrapS": 10497,
      "wrapT": 10497
    }
  ],
  "scene": 0,
  "scenes": [
    {
      "name": "Sketchfab_Scene",
      "nodes": [
        0
      ]
    }
  ],
  "textures": [
    {
      "sampler": 0,
      "source": 0
    },
    {
      "sampler": 0,
      "source": 1
    },
    {
      "sampler": 0,
      "source": 2
    },
    {
      "sampler": 0,
      "source": 3
    }
  ]
}